<mxfile host="app.diagrams.net" modified="2024-07-19T15:12:03.805Z" agent="Mozilla/5.0 (Macintosh; Intel Mac OS X 10_15_7) AppleWebKit/537.36 (KHTML, like Gecko) Chrome/126.0.0.0 Safari/537.36" etag="tiO9Dh2XB4cNZA06SHq-" version="24.7.2" type="device">
  <diagram name="Page-1" id="jOS1mPPEblPFKUI_u2CI">
    <mxGraphModel dx="3457" dy="1868" grid="1" gridSize="10" guides="1" tooltips="1" connect="1" arrows="1" fold="1" page="1" pageScale="1" pageWidth="850" pageHeight="1100" math="0" shadow="0">
      <root>
        <mxCell id="0" />
        <mxCell id="1" parent="0" />
        <mxCell id="Paw332RBow5AbY67ZY46-2" value="POSTS DOCUMENT" style="text;html=1;align=center;verticalAlign=middle;resizable=0;points=[];autosize=1;strokeColor=none;fillColor=none;" vertex="1" parent="1">
          <mxGeometry x="60" y="375.5" width="140" height="30" as="geometry" />
        </mxCell>
        <mxCell id="Paw332RBow5AbY67ZY46-4" value="COMMENTS DOCUMENT" style="text;html=1;align=center;verticalAlign=middle;resizable=0;points=[];autosize=1;strokeColor=none;fillColor=none;" vertex="1" parent="1">
          <mxGeometry x="410" y="375.5" width="170" height="30" as="geometry" />
        </mxCell>
        <mxCell id="Paw332RBow5AbY67ZY46-6" value="" style="endArrow=classic;html=1;rounded=0;exitX=1;exitY=0.5;exitDx=0;exitDy=0;entryX=0;entryY=0.5;entryDx=0;entryDy=0;" edge="1" parent="1" source="Paw332RBow5AbY67ZY46-14" target="Paw332RBow5AbY67ZY46-15">
          <mxGeometry width="50" height="50" relative="1" as="geometry">
            <mxPoint x="200.49" y="525.5" as="sourcePoint" />
            <mxPoint x="429.51" y="526.5" as="targetPoint" />
            <Array as="points">
              <mxPoint x="319.51" y="526.5" />
            </Array>
          </mxGeometry>
        </mxCell>
        <mxCell id="Paw332RBow5AbY67ZY46-7" value="id = postid" style="text;html=1;align=center;verticalAlign=middle;resizable=0;points=[];autosize=1;strokeColor=none;fillColor=none;" vertex="1" parent="1">
          <mxGeometry x="275" y="485.5" width="80" height="30" as="geometry" />
        </mxCell>
        <mxCell id="Paw332RBow5AbY67ZY46-8" value="MongoDB backend" style="text;html=1;align=center;verticalAlign=middle;resizable=0;points=[];autosize=1;strokeColor=none;fillColor=none;strokeWidth=5;fontSize=20;" vertex="1" parent="1">
          <mxGeometry x="210" y="330" width="190" height="40" as="geometry" />
        </mxCell>
        <mxCell id="Paw332RBow5AbY67ZY46-9" value="" style="endArrow=none;dashed=1;html=1;dashPattern=1 3;strokeWidth=2;rounded=0;" edge="1" parent="1">
          <mxGeometry width="50" height="50" relative="1" as="geometry">
            <mxPoint x="20" y="690" as="sourcePoint" />
            <mxPoint x="610" y="690" as="targetPoint" />
            <Array as="points">
              <mxPoint x="320" y="690" />
            </Array>
          </mxGeometry>
        </mxCell>
        <mxCell id="Paw332RBow5AbY67ZY46-10" value="" style="endArrow=none;dashed=1;html=1;dashPattern=1 3;strokeWidth=2;rounded=0;" edge="1" parent="1">
          <mxGeometry width="50" height="50" relative="1" as="geometry">
            <mxPoint x="35" y="310" as="sourcePoint" />
            <mxPoint x="600" y="310" as="targetPoint" />
            <Array as="points">
              <mxPoint x="315" y="310" />
            </Array>
          </mxGeometry>
        </mxCell>
        <mxCell id="Paw332RBow5AbY67ZY46-11" value="" style="endArrow=none;dashed=1;html=1;dashPattern=1 3;strokeWidth=2;rounded=0;" edge="1" parent="1">
          <mxGeometry width="50" height="50" relative="1" as="geometry">
            <mxPoint x="20" y="690" as="sourcePoint" />
            <mxPoint x="310" y="310" as="targetPoint" />
            <Array as="points">
              <mxPoint x="20" y="310" />
              <mxPoint x="160" y="310" />
            </Array>
          </mxGeometry>
        </mxCell>
        <mxCell id="Paw332RBow5AbY67ZY46-13" value="" style="endArrow=none;dashed=1;html=1;dashPattern=1 3;strokeWidth=2;rounded=0;" edge="1" parent="1">
          <mxGeometry width="50" height="50" relative="1" as="geometry">
            <mxPoint x="310" y="310" as="sourcePoint" />
            <mxPoint x="610" y="690" as="targetPoint" />
            <Array as="points">
              <mxPoint x="610" y="310" />
            </Array>
          </mxGeometry>
        </mxCell>
        <mxCell id="Paw332RBow5AbY67ZY46-14" value="Post : {&lt;br&gt;id, title, timestamp" style="shape=datastore;whiteSpace=wrap;html=1;" vertex="1" parent="1">
          <mxGeometry x="35" y="405.5" width="190" height="240" as="geometry" />
        </mxCell>
        <mxCell id="Paw332RBow5AbY67ZY46-15" value="Comment : {&lt;br&gt;id, content, postid, timestamp&lt;br&gt;}" style="shape=datastore;whiteSpace=wrap;html=1;" vertex="1" parent="1">
          <mxGeometry x="400" y="405.5" width="190" height="240" as="geometry" />
        </mxCell>
        <mxCell id="Paw332RBow5AbY67ZY46-16" value="&lt;font style=&quot;font-size: 18px;&quot;&gt;Posts Service&lt;/font&gt;" style="rounded=1;whiteSpace=wrap;html=1;absoluteArcSize=1;arcSize=14;strokeWidth=2;" vertex="1" parent="1">
          <mxGeometry x="810" y="210" width="210" height="160" as="geometry" />
        </mxCell>
        <mxCell id="Paw332RBow5AbY67ZY46-17" value="&lt;span style=&quot;font-size: 18px;&quot;&gt;Comment Service&lt;/span&gt;" style="rounded=1;whiteSpace=wrap;html=1;absoluteArcSize=1;arcSize=14;strokeWidth=2;" vertex="1" parent="1">
          <mxGeometry x="810" y="490" width="210" height="160" as="geometry" />
        </mxCell>
        <mxCell id="Paw332RBow5AbY67ZY46-33" style="edgeStyle=orthogonalEdgeStyle;rounded=0;orthogonalLoop=1;jettySize=auto;html=1;entryX=1;entryY=0.75;entryDx=0;entryDy=0;" edge="1" parent="1" source="Paw332RBow5AbY67ZY46-18" target="Paw332RBow5AbY67ZY46-19">
          <mxGeometry relative="1" as="geometry" />
        </mxCell>
        <mxCell id="Paw332RBow5AbY67ZY46-18" value="&lt;span style=&quot;font-size: 18px;&quot;&gt;Event Broker&lt;/span&gt;" style="rounded=1;whiteSpace=wrap;html=1;absoluteArcSize=1;arcSize=14;strokeWidth=2;" vertex="1" parent="1">
          <mxGeometry x="1185" y="280" width="180" height="314.5" as="geometry" />
        </mxCell>
        <mxCell id="Paw332RBow5AbY67ZY46-34" style="edgeStyle=orthogonalEdgeStyle;rounded=0;orthogonalLoop=1;jettySize=auto;html=1;entryX=0.5;entryY=1;entryDx=0;entryDy=0;" edge="1" parent="1" source="Paw332RBow5AbY67ZY46-19" target="Paw332RBow5AbY67ZY46-30">
          <mxGeometry relative="1" as="geometry" />
        </mxCell>
        <mxCell id="Paw332RBow5AbY67ZY46-19" value="&lt;span style=&quot;font-size: 18px;&quot;&gt;Query Service&lt;/span&gt;" style="rounded=1;whiteSpace=wrap;html=1;absoluteArcSize=1;arcSize=14;strokeWidth=2;" vertex="1" parent="1">
          <mxGeometry x="810" y="750" width="210" height="160" as="geometry" />
        </mxCell>
        <mxCell id="Paw332RBow5AbY67ZY46-20" value="" style="endArrow=classic;html=1;rounded=0;entryX=0;entryY=0.5;entryDx=0;entryDy=0;" edge="1" parent="1" target="Paw332RBow5AbY67ZY46-16">
          <mxGeometry width="50" height="50" relative="1" as="geometry">
            <mxPoint x="610" y="500" as="sourcePoint" />
            <mxPoint x="670" y="170" as="targetPoint" />
            <Array as="points">
              <mxPoint x="670" y="500" />
              <mxPoint x="670" y="290" />
            </Array>
          </mxGeometry>
        </mxCell>
        <mxCell id="Paw332RBow5AbY67ZY46-21" value="" style="endArrow=classic;html=1;rounded=0;entryX=-0.005;entryY=0.422;entryDx=0;entryDy=0;entryPerimeter=0;" edge="1" parent="1" target="Paw332RBow5AbY67ZY46-17">
          <mxGeometry width="50" height="50" relative="1" as="geometry">
            <mxPoint x="610" y="500" as="sourcePoint" />
            <mxPoint x="810" y="380" as="targetPoint" />
            <Array as="points">
              <mxPoint x="670" y="499.5" />
              <mxPoint x="670" y="560" />
            </Array>
          </mxGeometry>
        </mxCell>
        <mxCell id="Paw332RBow5AbY67ZY46-22" value="" style="shape=actor;whiteSpace=wrap;html=1;" vertex="1" parent="1">
          <mxGeometry x="1920" y="416" width="90" height="134" as="geometry" />
        </mxCell>
        <mxCell id="Paw332RBow5AbY67ZY46-24" style="edgeStyle=orthogonalEdgeStyle;rounded=0;orthogonalLoop=1;jettySize=auto;html=1;entryX=0;entryY=0.397;entryDx=0;entryDy=0;entryPerimeter=0;" edge="1" parent="1" source="Paw332RBow5AbY67ZY46-16" target="Paw332RBow5AbY67ZY46-18">
          <mxGeometry relative="1" as="geometry" />
        </mxCell>
        <mxCell id="Paw332RBow5AbY67ZY46-25" style="edgeStyle=orthogonalEdgeStyle;rounded=0;orthogonalLoop=1;jettySize=auto;html=1;entryX=0;entryY=0.579;entryDx=0;entryDy=0;entryPerimeter=0;" edge="1" parent="1" source="Paw332RBow5AbY67ZY46-17" target="Paw332RBow5AbY67ZY46-18">
          <mxGeometry relative="1" as="geometry" />
        </mxCell>
        <mxCell id="Paw332RBow5AbY67ZY46-27" value="" style="endArrow=none;dashed=1;html=1;dashPattern=1 3;strokeWidth=2;rounded=0;" edge="1" parent="1">
          <mxGeometry width="50" height="50" relative="1" as="geometry">
            <mxPoint x="1070" y="930" as="sourcePoint" />
            <mxPoint x="1070" y="930" as="targetPoint" />
            <Array as="points">
              <mxPoint x="760" y="930" />
              <mxPoint x="760" y="300" />
              <mxPoint x="760" y="180" />
              <mxPoint x="950" y="180" />
              <mxPoint x="1070" y="180" />
            </Array>
          </mxGeometry>
        </mxCell>
        <mxCell id="Paw332RBow5AbY67ZY46-28" value="&lt;font style=&quot;font-size: 23px;&quot;&gt;Node Backend&lt;/font&gt;" style="text;html=1;align=center;verticalAlign=middle;resizable=0;points=[];autosize=1;strokeColor=none;fillColor=none;" vertex="1" parent="1">
          <mxGeometry x="830" y="405.5" width="170" height="40" as="geometry" />
        </mxCell>
        <mxCell id="Paw332RBow5AbY67ZY46-29" value="Pub/Sub&amp;nbsp;" style="text;html=1;align=center;verticalAlign=middle;resizable=0;points=[];autosize=1;strokeColor=none;fillColor=none;fontSize=23;" vertex="1" parent="1">
          <mxGeometry x="1220" y="220" width="120" height="40" as="geometry" />
        </mxCell>
        <mxCell id="Paw332RBow5AbY67ZY46-30" value="&lt;span style=&quot;font-size: 18px;&quot;&gt;Blog Client&lt;/span&gt;" style="rounded=1;whiteSpace=wrap;html=1;absoluteArcSize=1;arcSize=14;strokeWidth=2;" vertex="1" parent="1">
          <mxGeometry x="1540" y="295" width="210" height="284.5" as="geometry" />
        </mxCell>
        <mxCell id="Paw332RBow5AbY67ZY46-35" value="" style="endArrow=none;dashed=1;html=1;dashPattern=1 3;strokeWidth=2;rounded=0;" edge="1" parent="1">
          <mxGeometry width="50" height="50" relative="1" as="geometry">
            <mxPoint x="1800" y="690.25" as="sourcePoint" />
            <mxPoint x="1800" y="690.25" as="targetPoint" />
            <Array as="points">
              <mxPoint x="1490" y="690.25" />
              <mxPoint x="1490" y="280.75" />
              <mxPoint x="1490" y="160.75" />
              <mxPoint x="1680" y="160.75" />
              <mxPoint x="1800" y="160.75" />
            </Array>
          </mxGeometry>
        </mxCell>
        <mxCell id="Paw332RBow5AbY67ZY46-36" value="ReactJs Frontend" style="text;html=1;align=center;verticalAlign=middle;resizable=0;points=[];autosize=1;strokeColor=none;fillColor=none;fontSize=23;" vertex="1" parent="1">
          <mxGeometry x="1540" y="203" width="210" height="40" as="geometry" />
        </mxCell>
        <mxCell id="Paw332RBow5AbY67ZY46-37" value="User" style="text;html=1;align=center;verticalAlign=middle;resizable=0;points=[];autosize=1;strokeColor=none;fillColor=none;fontSize=20;" vertex="1" parent="1">
          <mxGeometry x="1930" y="554.5" width="70" height="40" as="geometry" />
        </mxCell>
        <mxCell id="Paw332RBow5AbY67ZY46-38" value="&lt;font style=&quot;font-size: 35px;&quot;&gt;Blog MERN architecture&lt;/font&gt;" style="text;html=1;align=center;verticalAlign=middle;resizable=0;points=[];autosize=1;strokeColor=none;fillColor=none;" vertex="1" parent="1">
          <mxGeometry x="710" y="13" width="400" height="60" as="geometry" />
        </mxCell>
      </root>
    </mxGraphModel>
  </diagram>
</mxfile>
